<svg xmlns="http://www.w3.org/2000/svg" xmlns:xlink="http://www.w3.org/1999/xlink" width="1920" zoomAndPan="magnify" viewBox="0 0 1440 1349.999938" height="1800" preserveAspectRatio="xMidYMid meet" version="1.0"><defs><filter x="0%" y="0%" width="100%" height="100%" id="28c3f1a2ba"><feColorMatrix values="0 0 0 0 1 0 0 0 0 1 0 0 0 0 1 0 0 0 1 0" color-interpolation-filters="sRGB"/></filter><mask id="4fa0915e32"><g filter="url(#28c3f1a2ba)"><rect x="-144" width="1728" fill="#000000" y="-134.999994" height="1619.999926" fill-opacity="0.5"/></g></mask><clipPath id="3c99023b20"><path d="M 464 48 L 856.25 48 L 856.25 858 L 464 858 Z M 464 48 " clip-rule="nonzero"/></clipPath><clipPath id="9d9b11356b"><rect x="0" width="907" y="0" height="906"/></clipPath></defs><g mask="url(#4fa0915e32)"><g transform="matrix(1, 0, 0, 1, 271, 330)"><g clip-path="url(#9d9b11356b)"><path fill="#006884" d="M 242.75 715.132812 C 240.304688 721.828125 243.65625 729.429688 250.261719 731.875 C 256.957031 734.316406 264.378906 730.789062 266.914062 724.089844 C 280.035156 689.25 319.132812 671.421875 354.15625 684.453125 C 360.941406 686.894531 368.273438 683.367188 370.808594 676.667969 C 373.339844 669.972656 370.082031 662.550781 363.296875 660.015625 C 314.878906 642.097656 260.851562 666.804688 242.75 715.132812 Z M 242.75 715.132812 " fill-opacity="1" fill-rule="nonzero"/><path fill="#006884" d="M 409.449219 58.011719 C 391.710938 46.425781 369.269531 45.703125 343.203125 55.566406 C 341.125 56.203125 297.773438 71.675781 269.628906 98.285156 C 267.820312 98.195312 266.1875 97.921875 264.378906 97.921875 C 212.703125 97.921875 170.800781 139.914062 170.800781 191.679688 C 170.800781 203.988281 173.246094 215.933594 177.953125 227.15625 C 132.25 239.734375 98.582031 281.003906 98.582031 330.597656 C 98.582031 340.007812 100.304688 349.242188 102.566406 358.289062 C 69.894531 377.476562 49.171875 412.679688 49.171875 451.054688 C 49.171875 478.746094 59.847656 503.722656 77.226562 522.820312 C 70.890625 536.757812 67.269531 551.960938 67.269531 567.527344 C 67.269531 610.875 93.605469 649.519531 132.519531 666.351562 C 128.628906 676.578125 126.546875 687.710938 126.546875 698.839844 C 126.546875 750.609375 168.539062 792.507812 220.304688 792.507812 C 222.660156 792.507812 225.191406 791.964844 227.726562 791.785156 C 241.84375 830.519531 283.746094 857.757812 332.527344 857.757812 C 393.160156 857.757812 442.574219 815.675781 442.574219 764.09375 L 442.574219 672.507812 C 442.574219 672.507812 442.574219 672.507812 442.574219 672.324219 L 442.574219 325.800781 C 442.574219 325.800781 442.574219 325.800781 442.574219 325.710938 L 442.574219 325.621094 L 442.484375 123.082031 C 442.484375 121.269531 439.679688 77.742188 409.449219 58.011719 Z M 416.691406 261.457031 C 399.675781 243.445312 375.605469 232.042969 348.816406 232.042969 C 341.667969 232.042969 335.875 237.835938 335.875 244.984375 C 335.875 252.042969 341.667969 257.925781 348.816406 257.925781 C 386.28125 257.925781 416.691406 288.332031 416.691406 325.800781 L 416.691406 608.25 C 399.675781 590.242188 375.605469 578.75 348.816406 578.75 C 341.667969 578.65625 335.875 584.449219 335.875 591.507812 C 335.875 598.75 341.667969 604.449219 348.816406 604.449219 C 386.28125 604.449219 416.691406 635.039062 416.691406 672.324219 L 416.691406 764.09375 C 416.691406 801.378906 379.042969 831.96875 332.527344 831.96875 C 291.347656 831.96875 256.324219 808.074219 249.539062 775.40625 C 248 768.4375 241.03125 764.09375 234.0625 765.269531 C 234.0625 765.269531 233.972656 765.269531 233.882812 765.269531 C 229.445312 766.355469 224.921875 766.714844 220.304688 766.714844 C 182.839844 766.714844 152.339844 736.308594 152.339844 698.839844 C 152.339844 686.984375 155.507812 675.492188 161.300781 665.265625 C 161.660156 664.722656 161.753906 664 161.933594 663.273438 C 162.023438 662.914062 162.386719 662.730469 162.65625 662.371094 C 162.65625 662.007812 162.65625 661.464844 162.65625 660.921875 C 162.746094 660.378906 162.746094 659.835938 162.746094 659.113281 C 162.746094 658.027344 162.746094 657.03125 162.65625 656.125 C 162.386719 655.492188 162.203125 654.949219 161.933594 654.496094 C 161.570312 653.410156 161.210938 652.6875 160.574219 651.871094 C 160.304688 651.238281 159.761719 650.785156 159.308594 650.242188 C 158.585938 649.519531 157.859375 648.976562 157.226562 648.253906 C 156.867188 648.070312 156.773438 647.890625 156.414062 647.710938 C 155.960938 647.347656 155.328125 647.347656 154.695312 647.074219 C 154.332031 646.894531 153.96875 646.714844 153.515625 646.53125 C 117.949219 636.757812 93.242188 604.269531 93.242188 567.527344 C 93.242188 558.476562 95.234375 549.515625 98.132812 541.191406 C 115.054688 552.140625 135.144531 558.839844 156.867188 558.839844 C 163.925781 558.839844 169.808594 553.046875 169.808594 545.898438 C 169.808594 538.65625 163.925781 532.773438 156.867188 532.773438 C 111.617188 532.773438 75.054688 496.121094 75.054688 450.960938 C 75.054688 419.195312 93.605469 390.238281 122.386719 376.753906 L 122.476562 376.753906 C 122.65625 376.660156 122.835938 376.480469 123.019531 376.390625 C 133.699219 371.59375 145.101562 369.148438 156.867188 369.148438 C 163.925781 369.148438 169.808594 363.359375 169.808594 356.207031 C 169.808594 349.058594 163.925781 343.449219 156.867188 343.449219 C 146.367188 343.449219 136.414062 345.347656 126.546875 348.246094 C 125.28125 342.453125 124.375 336.570312 124.375 330.597656 C 124.375 285.4375 161.210938 248.785156 206.277344 248.785156 C 237.5 248.785156 265.464844 266.070312 279.492188 294.035156 C 282.75 300.460938 290.445312 302.90625 296.867188 299.738281 C 303.203125 296.570312 305.828125 288.875 302.570312 282.453125 C 284.199219 245.707031 247.367188 222.902344 206.277344 222.902344 C 205.824219 222.902344 205.464844 222.992188 204.921875 222.992188 C 199.761719 213.308594 196.59375 202.722656 196.59375 191.589844 C 196.59375 154.121094 227.003906 123.714844 264.46875 123.714844 C 289.085938 123.714844 311.800781 137.109375 323.839844 158.648438 C 329.269531 168.691406 332.253906 180.097656 332.253906 191.589844 C 332.253906 198.648438 338.136719 204.53125 345.195312 204.53125 C 352.34375 204.53125 358.226562 198.648438 358.226562 191.589844 C 358.226562 175.660156 354.15625 159.914062 346.464844 146.160156 C 336.054688 127.695312 320.21875 113.757812 301.484375 105.613281 C 324.472656 89.6875 351.351562 80.09375 351.894531 79.820312 C 370.265625 72.945312 384.925781 72.851562 395.332031 79.640625 C 414.335938 92.039062 416.691406 123.804688 416.691406 123.804688 Z M 416.691406 261.457031 " fill-opacity="1" fill-rule="nonzero"/><path fill="#006884" d="M 277.050781 387.613281 C 275.78125 380.734375 268.996094 376.117188 261.9375 377.476562 C 254.875 378.832031 250.441406 385.621094 251.800781 392.589844 C 256.6875 418.5625 270.441406 441.277344 289.992188 458.5625 C 289.539062 460.191406 289.265625 461.824219 289.355469 463.542969 C 291.53125 500.917969 263.023438 533.226562 225.734375 535.488281 C 218.496094 535.851562 213.15625 542.003906 213.519531 549.0625 C 213.972656 555.941406 219.671875 561.28125 226.460938 561.28125 C 226.640625 561.28125 226.914062 561.28125 227.363281 561.28125 C 274.242188 558.476562 310.714844 521.191406 314.605469 475.488281 C 331.078125 483.8125 348.996094 488.15625 367.277344 488.15625 C 374.789062 488.15625 382.300781 487.523438 389.632812 486.078125 C 396.507812 484.808594 401.125 478.023438 399.859375 470.960938 C 398.589844 464.085938 391.53125 459.378906 384.746094 460.734375 C 360.492188 465.441406 336.054688 460.375 315.875 446.527344 C 295.421875 432.679688 281.664062 411.777344 277.050781 387.613281 Z M 277.050781 387.613281 " fill-opacity="1" fill-rule="nonzero"/><path fill="#006884" d="M 543.753906 660.109375 C 537.144531 662.550781 533.796875 669.972656 536.242188 676.761719 C 538.59375 683.457031 546.195312 686.984375 552.894531 684.542969 C 587.917969 671.421875 627.101562 689.339844 640.226562 724.183594 C 642.667969 730.789062 650.089844 734.316406 656.789062 731.875 C 663.574219 729.429688 666.832031 721.828125 664.300781 715.042969 C 646.378906 666.804688 592.171875 642.097656 543.753906 660.109375 Z M 543.753906 660.109375 " fill-opacity="1" fill-rule="nonzero"/><g clip-path="url(#3c99023b20)"><path fill="#006884" d="M 857.96875 451.054688 C 857.96875 412.679688 837.246094 377.476562 804.484375 358.289062 C 806.746094 349.242188 808.464844 340.007812 808.464844 330.597656 C 808.464844 281.09375 774.800781 239.734375 729.277344 227.15625 C 733.804688 215.933594 736.335938 203.988281 736.335938 191.679688 C 736.335938 140.003906 694.34375 97.921875 642.667969 97.921875 C 640.949219 97.921875 639.320312 98.195312 637.421875 98.285156 C 609.273438 71.675781 565.835938 56.203125 563.933594 55.566406 C 537.78125 45.703125 515.335938 46.425781 497.597656 58.011719 C 467.460938 77.742188 464.65625 121.269531 464.65625 123.082031 L 464.566406 325.621094 L 464.566406 325.710938 C 464.566406 325.710938 464.566406 325.800781 464.566406 325.800781 L 464.566406 672.324219 C 464.566406 672.507812 464.566406 672.507812 464.566406 672.507812 L 464.566406 764.09375 C 464.566406 815.675781 513.976562 857.757812 574.613281 857.757812 C 623.394531 857.757812 665.292969 830.519531 679.320312 791.785156 C 681.855469 791.964844 684.390625 792.507812 686.742188 792.507812 C 738.417969 792.507812 780.5 750.609375 780.5 698.839844 C 780.5 687.710938 778.417969 676.578125 774.527344 666.351562 C 813.625 649.519531 839.777344 610.785156 839.777344 567.527344 C 839.777344 551.960938 836.339844 536.757812 829.914062 522.820312 C 847.289062 503.722656 857.96875 478.746094 857.96875 451.054688 Z M 753.53125 646.53125 C 753.078125 646.714844 752.808594 646.894531 752.355469 647.074219 C 751.8125 647.347656 751.089844 647.347656 750.636719 647.710938 C 750.273438 647.890625 750.183594 648.070312 749.820312 648.253906 C 749.097656 648.976562 748.464844 649.519531 747.832031 650.242188 C 747.289062 650.785156 746.746094 651.238281 746.472656 651.78125 C 745.839844 652.6875 745.566406 653.410156 745.117188 654.496094 C 744.933594 654.949219 744.664062 655.492188 744.480469 656.214844 C 744.300781 657.121094 744.300781 658.117188 744.300781 659.203125 C 744.300781 659.925781 744.300781 660.46875 744.480469 661.011719 C 744.480469 661.554688 744.300781 662.097656 744.480469 662.460938 C 744.664062 662.824219 745.023438 663.003906 745.117188 663.367188 C 745.476562 664 745.476562 664.722656 745.839844 665.265625 C 751.539062 675.492188 754.796875 686.984375 754.796875 698.839844 C 754.796875 736.308594 724.121094 766.714844 686.742188 766.714844 C 682.128906 766.714844 677.601562 766.355469 673.167969 765.269531 L 672.988281 765.269531 C 666.109375 764 659.140625 768.4375 657.601562 775.3125 C 650.8125 808.074219 615.789062 831.96875 574.613281 831.96875 C 528.007812 831.96875 490.359375 801.378906 490.359375 764.09375 L 490.359375 672.324219 C 490.359375 635.039062 520.855469 604.449219 558.234375 604.449219 C 565.382812 604.449219 571.265625 598.75 571.265625 591.507812 C 571.265625 584.449219 565.472656 578.566406 558.234375 578.566406 C 531.445312 578.566406 507.371094 590.0625 490.359375 608.070312 L 490.359375 325.710938 C 490.359375 288.242188 520.855469 257.835938 558.234375 257.835938 C 565.382812 257.835938 571.265625 252.042969 571.265625 244.894531 C 571.265625 237.746094 565.472656 231.863281 558.234375 231.863281 C 531.445312 231.863281 507.371094 243.265625 490.359375 261.273438 L 490.359375 123.804688 C 490.359375 123.804688 492.621094 92.039062 511.898438 79.640625 C 522.125 72.851562 536.875 72.945312 555.246094 79.820312 C 555.789062 80.09375 582.667969 89.6875 605.65625 105.613281 C 586.921875 113.757812 570.902344 127.695312 560.675781 146.160156 C 553.074219 160.003906 549 175.75 549 191.589844 C 549 198.648438 554.703125 204.53125 561.945312 204.53125 C 569.09375 204.53125 574.886719 198.648438 574.886719 191.589844 C 574.886719 180.097656 577.78125 168.691406 583.390625 158.648438 C 595.246094 137.199219 617.960938 123.804688 642.667969 123.804688 C 680.046875 123.804688 710.542969 154.210938 710.542969 191.679688 C 710.542969 202.8125 707.285156 213.398438 702.21875 223.082031 C 701.675781 223.082031 701.222656 222.992188 700.769531 222.992188 C 659.683594 222.992188 622.851562 245.707031 604.476562 282.542969 C 601.3125 288.875 603.84375 296.570312 610.269531 299.738281 C 616.605469 302.90625 624.296875 300.371094 627.554688 294.035156 C 641.492188 266.070312 669.546875 248.785156 700.769531 248.785156 C 745.839844 248.785156 782.671875 285.4375 782.671875 330.597656 C 782.671875 336.570312 781.675781 342.453125 780.5 348.246094 C 770.816406 345.347656 760.863281 343.449219 750.183594 343.449219 C 743.125 343.449219 737.152344 349.148438 737.152344 356.300781 C 737.152344 363.449219 743.125 369.242188 750.183594 369.242188 C 762.039062 369.242188 773.351562 371.683594 783.941406 376.480469 C 784.210938 376.570312 784.390625 376.753906 784.574219 376.84375 L 784.753906 376.84375 C 813.535156 390.238281 831.996094 419.289062 831.996094 451.054688 C 831.996094 496.210938 795.34375 532.863281 750.183594 532.863281 C 743.125 532.863281 737.152344 538.65625 737.152344 545.988281 C 737.152344 553.046875 743.035156 558.929688 750.183594 558.929688 C 771.902344 558.929688 791.996094 552.230469 808.828125 541.28125 C 811.90625 549.425781 813.804688 558.476562 813.804688 567.527344 C 813.804688 604.269531 789.097656 636.757812 753.53125 646.53125 Z M 753.53125 646.53125 " fill-opacity="1" fill-rule="nonzero"/></g><path fill="#006884" d="M 681.492188 535.488281 C 644.117188 533.226562 615.609375 500.917969 617.691406 463.542969 C 617.871094 461.824219 617.601562 460.191406 617.058594 458.5625 C 636.695312 441.371094 650.363281 418.652344 655.339844 392.589844 C 656.789062 385.621094 652.261719 378.832031 645.203125 377.476562 C 638.054688 376.117188 631.265625 380.734375 630 387.613281 C 625.292969 411.777344 611.539062 432.679688 591.265625 446.527344 C 570.902344 460.375 546.46875 465.441406 522.394531 460.734375 C 515.605469 459.378906 508.457031 464.085938 507.191406 470.960938 C 505.925781 478.023438 510.539062 484.808594 517.597656 486.167969 C 525.019531 487.523438 532.441406 488.25 539.863281 488.25 C 558.140625 488.25 576.152344 483.90625 592.53125 475.578125 C 596.425781 521.191406 632.804688 558.566406 679.863281 561.371094 C 680.226562 561.371094 680.40625 561.371094 680.589844 561.371094 C 687.46875 561.371094 693.167969 556.03125 693.621094 549.15625 C 693.890625 542.003906 688.644531 535.851562 681.492188 535.488281 Z M 681.492188 535.488281 " fill-opacity="1" fill-rule="nonzero"/></g></g></g></svg>